; NON-PLATED HOLES START AT T1
; THROUGH (PLATED) HOLES START AT T100
M48
INCH
T1C0.086614
T100C0.046111
T101C0.035000
T102C0.015748
T103C0.036000
%
T1
X029380Y016309
X001379Y016309
X029262Y001178
X001262Y001178
T100
X004497Y015262
X026910Y015249
X004629Y001860
X025910Y015249
X024035Y001872
X005497Y015262
X023910Y015249
X003497Y015262
X005629Y001860
X006629Y001860
X003629Y001860
X024910Y015249
X027034Y001872
X026034Y001872
X025034Y001872
X006497Y015262
T101
X006379Y006309
X025984Y006611
X024380Y006611
X006379Y007309
X029166Y006611
X029166Y010611
X027559Y006611
X006379Y005309
X006379Y011309
X027559Y010611
X024380Y010611
X006379Y008309
X006379Y009309
X025984Y010611
X006379Y010309
T102
X008040Y007842
X006840Y013362
X007080Y005682
T103
X017380Y012085
X018380Y012085
X016380Y012085
X017380Y005085
X016380Y005085
X020380Y012085
X011380Y005085
X013380Y005085
X009379Y012085
X019380Y012085
X010380Y012085
X014380Y012085
X020380Y005085
X019380Y005085
X009379Y005085
X014380Y005085
X015380Y005085
X010380Y005085
X013380Y012085
X011380Y012085
X018380Y005085
X012380Y005085
X012380Y012085
X015380Y012085
T00
M30
